PathFileType	4	(X/Y/Z)	c:/Users/goper/Files/vsCode/490R/osim_files/A04/A04_SSWS_02.trc
DataRate	CameraRate	NumFrames	NumMarkers	Units                	OrigDataRate	OrigDataStartFrame	OrigNumFrames
120.00	120.00	7	36	mm	120.0	594	1186
                Frame#	Time	LPSIS			LASIS			LTH1			LTH2			LTH3			LTH4			LLFE			LMFE			LSH1			LSH2			LSH3			LSH4			LLMAL			LMMAL			LCAL			LMTP5			LTOE			LMTP1			RPSIS			RASIS			RTH1			RTH2			RTH3			RTH4			RLFE			RMFE			RSH1			RSH2			RSH3			RSH4			RLMAL			RMMAL			RCAL			RMTP1			RTOE			RMTP5		
		X1	Y1	Z1	X2	Y2	Z2	X3	Y3	Z3	X4	Y4	Z4	X5	Y5	Z5	X6	Y6	Z6	X7	Y7	Z7	X8	Y8	Z8	X9	Y9	Z9	X10	Y10	Z10	X11	Y11	Z11	X12	Y12	Z12	X13	Y13	Z13	X14	Y14	Z14	X15	Y15	Z15	X16	Y16	Z16	X17	Y17	Z17	X18	Y18	Z18	X19	Y19	Z19	X20	Y20	Z20	X21	Y21	Z21	X22	Y22	Z22	X23	Y23	Z23	X24	Y24	Z24	X25	Y25	Z25	X26	Y26	Z26	X27	Y27	Z27	X28	Y28	Z28	X29	Y29	Z29	X30	Y30	Z30	X31	Y31	Z31	X32	Y32	Z32	X33	Y33	Z33	X34	Y34	Z34	X35	Y35	Z35	X36	Y36	Z36

594	4.94167	-2013.64441	1065.89050	334.64359	-2236.76514	1009.35059	409.05542	-2097.68555	665.40192	428.65714	-2097.39941	621.30133	427.04468	-2158.16821	661.10352	426.99432	-2151.06006	617.45844	425.69022	-2109.51489	528.98358	411.01682	-2124.15869	533.10376	272.45163	-2063.81860	431.11615	409.73959	-2066.06958	387.76791	405.79330	-2124.76831	427.19855	398.41833	-2117.34692	384.61612	394.31833	-2008.31921	109.78894	351.57004	-2030.46155	114.12357	268.13980	-1946.47083	69.35446	296.65106	-2150.18774	62.21334	386.09338	-2198.79053	77.63715	325.10364	-2181.46338	62.02774	281.18301	-2006.08765	1053.30054	228.33104	-2224.18237	1030.52905	123.44477	-2256.86816	745.76691	80.91019	-2281.75659	711.01294	80.58280	-2310.20532	777.00897	73.74531	-2329.83228	733.71716	76.73833	-2395.82568	610.42010	96.96905	-2396.98022	602.60162	215.77321	-2369.93433	373.97037	89.94558	-2378.10303	327.37375	96.57088	-2430.56934	379.18735	91.92352	-2429.84473	331.47180	94.10284	-2423.74756	137.43431	85.76223	-2434.28320	143.71513	221.57210	-2357.39771	72.21614	153.72495	-2573.07690	110.85812	213.17131	-2595.64502	139.51929	171.58060	-2576.45337	109.09863	95.16119
595	4.95000	-2022.73145	1064.61902	334.01584	-2246.16699	1008.66803	407.82935	-2103.60303	665.63495	428.61557	-2102.79126	621.08887	426.45230	-2163.87695	660.44043	426.19312	-2156.43872	616.92108	424.98810	-2114.03833	528.74640	410.24426	-2128.67676	532.58716	271.70236	-2067.33960	431.19904	409.22412	-2069.16870	387.90936	405.21103	-2128.26318	426.83698	397.85995	-2120.51123	384.32547	393.86642	-2008.76331	110.20779	351.47318	-2030.94055	114.31054	267.96490	-1946.75586	69.91789	296.47693	-2150.34424	62.11454	386.07907	-2199.15918	77.39630	325.11768	-2181.72021	61.69775	281.10867	-2015.47485	1051.83398	227.78905	-2233.56860	1029.55847	122.00176	-2264.86426	743.53723	79.32650	-2287.70483	709.45740	78.42271	-2317.92236	774.93457	72.35552	-2337.28564	731.45825	75.13821	-2404.23682	608.16901	96.61950	-2403.85205	600.25098	215.02658	-2383.87305	371.83939	88.24677	-2395.48975	325.08551	94.86998	-2445.17798	379.12408	90.15826	-2446.98755	331.22519	92.41732	-2448.30542	137.24406	83.76019	-2458.73657	143.48103	219.47375	-2385.28589	68.86975	151.40167	-2598.66016	115.89570	211.02724	-2620.22510	145.89746	169.58293	-2602.71680	114.87683	93.30360
596	4.95833	-2032.06653	1063.19214	333.27118	-2255.34277	1007.81256	406.57431	-2109.43506	665.01184	427.30765	-2108.39038	620.95050	425.67438	-2170.20972	659.84161	425.58957	-2162.09473	616.35156	424.13800	-2118.82617	528.47534	409.49942	-2133.68896	531.99994	270.89499	-2070.89185	431.55734	408.02640	-2072.55811	388.03845	404.57404	-2131.99316	426.33792	397.14719	-2123.76489	383.94467	393.15863	-2009.17920	110.72721	351.34091	-2031.49768	114.66422	267.68555	-1947.05005	70.66206	296.24155	-2150.44702	62.01471	386.02914	-2199.55322	77.12162	325.08780	-2181.89624	61.48038	281.18808	-2024.83740	1050.18677	227.04398	-2243.17163	1028.49524	120.64767	-2272.66040	741.17725	77.78630	-2295.93213	706.92908	76.87217	-2325.66699	772.41083	70.96147	-2345.12085	728.85614	73.74653	-2411.31543	605.75787	96.05177	-2410.30347	597.51038	214.40709	-2398.93921	369.14539	87.04742	-2411.66089	322.87454	93.38934	-2460.06274	378.57281	88.84386	-2463.34009	330.65945	90.89875	-2471.09033	137.11148	81.70760	-2481.82837	143.34232	217.37964	-2410.88013	66.29989	149.33249	-2622.51270	120.81310	208.40654	-2643.23022	151.52960	166.91359	-2625.74683	120.32674	90.36195
597	4.96667	-2041.64490	1061.65222	332.34000	-2265.02515	1007.08600	405.28958	-2116.13867	665.31122	427.08975	-2114.52905	620.75946	424.85379	-2176.65405	659.30188	424.75833	-2168.22974	615.76093	423.28766	-2123.91577	528.16779	408.78876	-2139.11719	531.38159	270.09317	-2075.84619	431.81693	408.24582	-2076.32715	388.34747	403.92001	-2136.32349	425.96988	396.47705	-2127.65601	383.79193	392.55438	-2009.71521	111.39391	351.13190	-2032.14697	115.06082	267.30923	-1947.35046	71.54877	296.02609	-2150.68262	62.02024	385.98862	-2200.11548	76.99542	325.00513	-2182.24121	61.31373	281.07007	-2034.42432	1048.47290	226.21559	-2252.95654	1027.28491	119.36908	-2280.84937	738.50989	76.47681	-2303.97339	704.27301	75.48550	-2333.37451	769.40527	70.31572	-2353.09497	725.99146	72.30247	-2418.32764	603.10126	95.47964	-2416.98193	594.53442	213.94849	-2412.42188	366.48575	86.01593	-2426.75610	320.67023	92.23568	-2473.34375	377.88989	87.42606	-2477.60718	330.18323	89.21532	-2491.77002	136.78543	79.70316	-2503.37720	143.29272	215.30797	-2434.27124	64.17873	147.66164	-2644.80981	125.20944	205.47391	-2664.09521	156.89458	163.64360	-2647.67041	125.03783	87.41296
598	4.97500	-2051.21777	1059.92041	331.26947	-2274.37744	1006.03857	404.13300	-2122.84473	664.99066	426.23453	-2121.22510	620.56848	424.12723	-2183.19336	658.39929	423.69608	-2174.74023	615.09375	422.40265	-2129.34473	527.82111	408.11871	-2145.06348	530.60034	269.26108	-2080.46167	431.94641	407.48691	-2080.32642	388.57776	402.97571	-2141.75610	424.43231	397.60608	-2131.55322	383.32697	391.87170	-2010.31323	112.08794	350.94861	-2032.85645	115.46990	266.98474	-1947.78955	72.52216	295.78769	-2150.86572	61.95576	385.90845	-2200.44800	76.63134	325.02829	-2182.46191	60.90967	281.13901	-2044.18506	1046.53333	225.11591	-2263.03271	1025.98181	118.15804	-2288.38574	736.04047	75.12276	-2311.85522	701.52966	74.25941	-2341.91309	766.46808	68.84938	-2361.26270	722.85992	70.92867	-2425.51147	600.15778	94.90437	-2423.80493	591.19324	213.41504	-2424.84033	363.75931	85.21004	-2440.63501	318.37064	91.27084	-2485.38623	376.76624	85.93691	-2490.90015	329.21347	87.63195	-2510.33789	136.28448	77.80473	-2523.31128	143.06226	213.32805	-2455.78467	61.73529	146.50986	-2664.63257	128.50850	201.54471	-2683.10181	161.20590	159.83119	-2665.52612	128.83868	83.16526
599	4.98333	-2060.93042	1058.02991	329.88397	-2284.11279	1005.10425	402.93311	-2130.10181	664.68622	424.69461	-2128.26782	620.31549	423.28467	-2190.34473	657.75238	422.79932	-2181.61987	614.46301	421.52249	-2135.14941	527.43256	407.49582	-2151.34863	529.83575	268.52084	-2085.14014	432.18924	406.31006	-2084.65015	388.86609	402.36246	-2146.54956	423.97989	397.00436	-2135.95581	382.93759	391.28732	-2010.95630	112.83565	350.68140	-2033.63367	115.94968	266.59576	-1948.24072	73.49725	295.44049	-2151.05957	61.87712	385.85196	-2200.86108	76.31999	324.94174	-2182.80737	60.57580	281.09491	-2054.10669	1044.49573	223.84726	-2273.16675	1024.48547	116.92775	-2297.58105	733.12469	74.22538	-2320.64966	698.45306	73.20155	-2350.56909	763.45850	67.52201	-2369.92920	719.58685	69.67374	-2432.86816	596.97058	94.36307	-2430.81665	587.49982	212.84279	-2436.66504	360.71429	84.53265	-2453.45874	315.74210	90.33795	-2496.41235	375.17386	84.51005	-2502.99658	327.80545	86.09412	-2526.17920	135.49655	75.29562	-2541.54395	142.57860	211.43590	-2475.00464	59.66382	145.55894	-2683.19897	131.37778	197.57457	-2700.16650	164.19199	155.29689	-2682.95898	131.43590	79.42937
600	4.99167	-2070.76685	1056.17468	328.37338	-2293.79175	1004.03949	401.85764	-2137.70483	664.00665	424.03345	-2135.65625	620.03796	422.56354	-2197.94971	657.05322	421.91953	-2189.05957	613.87866	420.78708	-2141.36768	526.99957	406.92651	-2158.25684	528.95996	267.77994	-2090.81201	432.50226	406.12445	-2089.38257	389.08005	401.71951	-2151.71631	423.66321	396.49210	-2140.57666	382.43323	390.76093	-2011.55481	113.73641	350.20520	-2034.40369	116.36454	266.22470	-1948.70532	74.40551	295.04208	-2151.30371	61.83377	385.82687	-2200.61646	75.69196	325.24130	-2183.17017	60.30151	281.06137	-2064.30127	1042.34119	222.33075	-2283.55322	1022.80695	115.73036	-2306.54712	730.20392	73.45034	-2329.30444	695.30121	72.38774	-2360.03809	760.37103	66.48225	-2378.48267	716.03455	68.53677	-2440.05713	593.69458	93.84563	-2438.17749	583.69690	212.32182	-2447.50488	357.40973	84.07174	-2464.81714	312.91687	89.68392	-2506.57178	373.17538	83.03172	-2514.16504	326.07843	84.67201	-2541.32617	134.03552	74.45734	-2558.14526	141.69701	209.66661	-2492.13721	57.42451	144.91344	-2699.49878	132.90323	193.35127	-2715.18262	166.11565	150.98235	-2696.99390	133.23387	75.11313
